<?xml version="1.0" encoding="UTF-8" standalone="no"?>
<!-- Generator: Adobe Illustrator 15.0.2, SVG Export Plug-In . SVG Version: 6.00 Build 0)  -->

<svg
   xmlns:a="http://ns.adobe.com/AdobeSVGViewerExtensions/3.0/"
   xmlns:ns="&amp;ns_vars;"
   xmlns:i="&amp;ns_ai;"
   xmlns:dc="http://purl.org/dc/elements/1.1/"
   xmlns:cc="http://creativecommons.org/ns#"
   xmlns:rdf="http://www.w3.org/1999/02/22-rdf-syntax-ns#"
   xmlns:svg="http://www.w3.org/2000/svg"
   xmlns="http://www.w3.org/2000/svg"
   xmlns:xlink="http://www.w3.org/1999/xlink"
   xmlns:sodipodi="http://sodipodi.sourceforge.net/DTD/sodipodi-0.dtd"
   xmlns:inkscape="http://www.inkscape.org/namespaces/inkscape"
   version="1.1"
   i:viewOrigin="393.402344 693.583984"
   i:rulerOrigin="-393.402344 -135.695312"
   i:pageBounds="393.402344 693.583984 825.31543 135.695312"
   x="0px"
   y="0px"
   width="1323.3339"
   height="434.15625"
   viewBox="0 0 1323.3339 434.15625"
   xml:space="preserve"
   id="svg2"
   inkscape:version="0.91 r13725"
   sodipodi:docname="PyCologne-2012-Logo-web-horizontal.svg"><defs
     id="defs63" /><sodipodi:namedview
     pagecolor="#ffffff"
     bordercolor="#666666"
     borderopacity="1"
     objecttolerance="10"
     gridtolerance="10"
     guidetolerance="10"
     inkscape:pageopacity="0"
     inkscape:pageshadow="2"
     inkscape:window-width="1600"
     inkscape:window-height="850"
     id="namedview61"
     showgrid="false"
     showguides="true"
     inkscape:guide-bbox="true"
     inkscape:zoom="0.59824552"
     inkscape:cx="684.37087"
     inkscape:cy="207.66461"
     inkscape:window-x="0"
     inkscape:window-y="0"
     inkscape:window-maximized="1"
     inkscape:current-layer="svg2"
     fit-margin-top="0"
     fit-margin-left="0"
     fit-margin-right="0"
     fit-margin-bottom="0"><sodipodi:guide
       position="6.5943454,92.623218"
       orientation="0,1"
       id="guide3421" /><sodipodi:guide
       position="239.95044,235.06435"
       orientation="0,1"
       id="guide3423" /></sodipodi:namedview><metadata
     id="metadata4"><ns:variableSets><ns:variableSet
         locked="none"
         varSetName="binding1"><ns:variables /><ns:sampleDataSets /></ns:variableSet></ns:variableSets><rdf:RDF><cc:Work
         rdf:about=""><dc:format>image/svg+xml</dc:format><dc:type
           rdf:resource="http://purl.org/dc/dcmitype/StillImage" /><dc:title></dc:title></cc:Work></rdf:RDF></metadata><g
     id="g3463"><g
       transform="translate(-31.015625,-23.708984)"
       id="g7"><g
         id="g9"><path
           i:knockout="Off"
           style="fill:#406b9c"
           d="m 319.78906,222.94336 0,78.13281 c 0,9.9336 -3.28515,14.90235 -9.86719,14.90235 -6.83984,0 -10.26562,-4.50391 -10.26562,-13.52735 l 0,-79.50781 -56.2461,-0.29297 0,87.44922 c 0,22.69531 5.03125,33.88281 13.35547,44.37891 8.33985,10.48437 22.38672,15.86718 35.25,15.86718 8.70313,0 17.58594,-1.19531 26.65235,-7.07422 -1.91406,22.48829 -17.35938,32.46094 -34.19531,32.46094 -15.12891,0 -32.62891,-7.64844 -46.2461,-11.23828 -13.60937,-3.59375 -42.48828,-12.98047 -79.66406,-8.97656 -47.05859,5.46875 -65.289062,11.71484 -127.546875,39.26953 l 55.5,43.07812 c 32.566405,-22.5 47.675785,-27.41015 76.910155,-31.79296 54.5625,-7.82813 81.875,18.17968 132.75781,17.13281 21.9375,0 43.27735,-7.02735 58.73828,-25.47266 12.95313,-15.51172 21.09766,-44.07812 21.09766,-69.3164 l 0.29297,-125.47266 -56.52344,0 z m -173.13281,2.14062 c 0,-0.12109 0.0156,-0.24218 0.0234,-0.375 0.20703,-7.13672 6.05078,-12.85937 13.23437,-12.85937 7.31641,0 13.24219,5.92969 13.24219,13.23437 0,7.33203 -5.92578,13.26172 -13.24219,13.26172 -0.0742,0 -0.13672,-0.0117 -0.20703,-0.0117 -0.14844,0 -0.28125,0.0117 -0.42578,0.0117 l 0,54.42578 -3.46094,0 8.60938,0.15625 c 21.65625,0 37.85156,-5.83203 48.58594,-17.48437 11.75781,-12.67188 17.625,-29.19531 17.625,-49.57813 0,-20.98047 -6.54297,-38.57422 -19.63672,-52.75781 -13.09766,-14.19922 -29.26953,-21.29687 -48.52344,-21.29687 -10.64063,0 -20.95703,2.38672 -30.94922,7.14843 -9.99609,4.77344 -18.32812,11.25 -24.98828,19.46875 -5.92969,7.40235 -10.109376,15.37891 -12.570313,23.94922 -2.457031,8.57032 -3.679688,19.54297 -3.679688,32.92578 l 0,130.02344 56.363281,0 0,-140.24219 z"
           id="path11"
           inkscape:connector-curvature="0" /></g><g
         id="g13"><g
           i:knockout="Off"
           id="g15"><defs
             id="defs17"><path
               id="SVGID_1_"
               i:knockout="Off"
               d="M 272.28125,25.423828 240.50391,203.86133 c -0.41797,2.28906 0.85546,4.16406 2.84375,4.16406 l 59.35156,0 c 1.98828,0 3.27344,-1.875 2.85937,-4.17578 L 273.76953,25.423828 c -0.19922,-1.144531 -0.47266,-1.714844 -0.74609,-1.714844 -0.26563,0 -0.53907,0.570313 -0.74219,1.714844"
               inkscape:connector-curvature="0" /></defs><linearGradient
             id="SVGID_2_"
             gradientUnits="userSpaceOnUse"
             x1="240.74023"
             y1="115.86719"
             x2="305.28928"
             y2="115.86719"><stop
               offset="0"
               style="stop-color:#F9B000"
               id="stop21" /><stop
               offset="1"
               style="stop-color:#FFE771"
               id="stop23" /><a:midPointStop
               offset="0"
               style="stop-color:#F9B000" /><a:midPointStop
               offset="0.5"
               style="stop-color:#F9B000" /><a:midPointStop
               offset="1"
               style="stop-color:#FFE771" /></linearGradient><use
             xlink:href="#SVGID_1_"
             style="overflow:visible;fill:url(#SVGID_2_)"
             id="use25"
             x="0"
             y="0"
             width="100%"
             height="100%" /><clipPath
             id="SVGID_3_"><use
               xlink:href="#SVGID_1_"
               style="overflow:visible"
               id="use28"
               x="0"
               y="0"
               width="100%"
               height="100%" /></clipPath></g><g
           i:knockout="Off"
           id="g30"><defs
             id="defs32"><path
               id="SVGID_4_"
               i:knockout="Off"
               d="M 346.49219,25.423828 314.71484,203.86133 c -0.41797,2.28906 0.85547,4.16406 2.84375,4.16406 l 59.35157,0 c 1.98828,0 3.27734,-1.875 2.85937,-4.17578 L 347.98047,25.423828 c -0.19922,-1.144531 -0.47266,-1.714844 -0.7461,-1.714844 -0.26562,0 -0.53906,0.570313 -0.74218,1.714844"
               inkscape:connector-curvature="0" /></defs><linearGradient
             id="SVGID_5_"
             gradientUnits="userSpaceOnUse"
             x1="314.95117"
             y1="115.86719"
             x2="379.50214"
             y2="115.86719"><stop
               offset="0"
               style="stop-color:#F9B000"
               id="stop36" /><stop
               offset="1"
               style="stop-color:#FFE771"
               id="stop38" /><a:midPointStop
               offset="0"
               style="stop-color:#F9B000" /><a:midPointStop
               offset="0.5"
               style="stop-color:#F9B000" /><a:midPointStop
               offset="1"
               style="stop-color:#FFE771" /></linearGradient><use
             xlink:href="#SVGID_4_"
             style="overflow:visible;fill:url(#SVGID_5_)"
             id="use40"
             x="0"
             y="0"
             width="100%"
             height="100%" /><clipPath
             id="SVGID_6_"><use
               xlink:href="#SVGID_4_"
               style="overflow:visible"
               id="use43"
               x="0"
               y="0"
               width="100%"
               height="100%" /></clipPath></g></g></g><g
       transform="matrix(3.0610138,0,0,3.0610138,154.27172,-1261.9684)"
       id="g45"><path
         i:knockout="Off"
         style="fill:#62625e;stroke:#62625e;stroke-miterlimit:10"
         d="m 73.18457,501.19531 c 0,-3.2041 0.519043,-6.22558 1.55957,-9.06543 1.039551,-2.83789 2.54248,-5.3125 4.510742,-7.41992 1.966797,-2.1084 4.35498,-3.78027 7.166504,-5.01758 2.80957,-1.23633 6.013672,-1.85547 9.611328,-1.85547 2.36084,0 4.523926,0.21094 6.491696,0.63281 1.9668,0.4209 3.87842,1.02637 5.7334,1.8125 l -2.61377,10.03516 c -1.18018,-0.44922 -2.47412,-0.84375 -3.87842,-1.18066 -1.40527,-0.33789 -2.979977,-0.50586 -4.721188,-0.50586 -3.709961,0 -6.479004,1.15234 -8.304688,3.45703 -1.827148,2.30566 -2.740234,5.3418 -2.740234,9.10742 0,3.99219 0.856445,7.08301 2.571777,9.27539 1.713867,2.19336 4.706543,3.28906 8.979004,3.28906 1.517578,0 3.146969,-0.13964 4.890139,-0.42187 1.74121,-0.28027 3.34326,-0.72949 4.80566,-1.34863 l 1.77051,10.2871 c -1.4624,0.62012 -3.28809,1.15235 -5.48047,1.60254 -2.19189,0.44922 -4.609374,0.67481 -7.250487,0.67481 -4.046875,0 -7.532715,-0.60449 -10.45459,-1.81348 -2.92334,-1.20801 -5.326172,-2.85254 -7.208496,-4.93262 -1.883789,-2.0791 -3.260254,-4.53906 -4.131348,-7.3789 -0.872068,-2.83789 -1.306639,-5.91602 -1.306639,-9.2334 z"
         id="path47"
         inkscape:connector-curvature="0" /><path
         i:knockout="Off"
         style="fill:#62625e;stroke:#62625e;stroke-miterlimit:10"
         d="m 156.39893,501.11133 c 0,3.48633 -0.50586,6.67578 -1.51758,9.57031 -1.01172,2.89648 -2.47412,5.36914 -4.38428,7.4209 -1.91113,2.05273 -4.20215,3.64062 -6.87109,4.76465 -2.67041,1.12402 -5.66309,1.68652 -8.97901,1.68652 -3.26074,0 -6.22607,-0.5625 -8.89502,-1.68652 -2.66992,-1.12403 -4.96093,-2.71192 -6.87109,-4.76465 -1.91162,-2.05176 -3.40137,-4.52442 -4.46826,-7.4209 -1.06836,-2.89453 -1.60205,-6.08398 -1.60205,-9.57031 0,-3.48535 0.54785,-6.66211 1.64404,-9.5293 1.09619,-2.86719 2.61377,-5.3125 4.55273,-7.33594 1.93897,-2.02441 4.24317,-3.59765 6.91358,-4.72265 2.66894,-1.12403 5.57763,-1.68653 8.72607,-1.68653 3.20361,0 6.14014,0.5625 8.81055,1.68653 2.66894,1.125 4.95947,2.69824 6.87109,4.72265 1.91016,2.02344 3.3999,4.46875 4.46826,7.33594 1.06739,2.86719 1.60206,6.04395 1.60206,9.5293 z m -12.81495,0 c 0,-3.87891 -0.77343,-6.92871 -2.31884,-9.14942 -1.54639,-2.2207 -3.75147,-3.33105 -6.61817,-3.33105 -2.8667,0 -5.08789,1.11035 -6.66064,3.33105 -1.57422,2.22071 -2.36084,5.27051 -2.36084,9.14942 0,3.8789 0.78662,6.95605 2.36084,9.2334 1.57275,2.27636 3.79394,3.41504 6.66064,3.41504 2.8667,0 5.07178,-1.13868 6.61817,-3.41504 1.54541,-2.27735 2.31884,-5.3545 2.31884,-9.2334 z"
         id="path49"
         inkscape:connector-curvature="0" /><path
         i:knockout="Off"
         style="fill:#62625e;stroke:#62625e;stroke-miterlimit:10"
         d="m 183.46191,524.2168 c -3.65429,-0.0576 -6.61865,-0.45118 -8.89502,-1.18067 -2.27636,-0.73047 -4.07568,-1.75683 -5.3955,-3.07812 -1.32129,-1.32031 -2.2212,-2.92285 -2.69825,-4.80664 -0.47802,-1.88281 -0.7163,-4.00586 -0.7163,-6.36719 l 0,-48.82422 12.56201,-2.02441 0,48.31933 c 0,1.125 0.0845,2.13672 0.25293,3.03614 0.16845,0.89941 0.49121,1.6582 0.96972,2.27636 0.47657,0.61914 1.16553,1.125 2.06543,1.51758 0.89844,0.39453 2.10791,0.64746 3.62549,0.75879 l -1.77051,10.37305 z"
         id="path51"
         inkscape:connector-curvature="0" /><path
         i:knockout="Off"
         style="fill:#62625e;stroke:#62625e;stroke-miterlimit:10"
         d="m 233.45703,501.11133 c 0,3.48633 -0.50586,6.67578 -1.51758,9.57031 -1.01172,2.89648 -2.47461,5.36914 -4.38476,7.4209 -1.91016,2.05273 -4.20117,3.64062 -6.8711,4.76465 -2.66992,1.12402 -5.66211,1.68652 -8.97851,1.68652 -3.25977,0 -6.22657,-0.5625 -8.89453,-1.68652 -2.67041,-1.12403 -4.96143,-2.71192 -6.87159,-4.76465 -1.91162,-2.05176 -3.40136,-4.52442 -4.46826,-7.4209 -1.06836,-2.89453 -1.60205,-6.08398 -1.60205,-9.57031 0,-3.48535 0.54785,-6.66211 1.64404,-9.5293 1.0962,-2.86719 2.61377,-5.3125 4.55274,-7.33594 1.93896,-2.02441 4.24316,-3.59765 6.91308,-4.72265 2.66993,-1.12403 5.57813,-1.68653 8.72657,-1.68653 3.20312,0 6.14062,0.5625 8.81054,1.68653 2.66797,1.125 4.95899,2.69824 6.8711,4.72265 1.91015,2.02344 3.40039,4.46875 4.46875,7.33594 1.0664,2.86719 1.60156,6.04395 1.60156,9.5293 z m -12.81445,0 c 0,-3.87891 -0.77344,-6.92871 -2.31836,-9.14942 -1.54688,-2.2207 -3.75195,-3.33105 -6.61914,-3.33105 -2.86719,0 -5.08789,1.11035 -6.66016,3.33105 -1.57422,2.22071 -2.36133,5.27051 -2.36133,9.14942 0,3.8789 0.78711,6.95605 2.36133,9.2334 1.57227,2.27636 3.79297,3.41504 6.66016,3.41504 2.86718,0 5.07226,-1.13868 6.61914,-3.41504 1.54492,-2.27735 2.31836,-5.3545 2.31836,-9.2334 z"
         id="path53"
         inkscape:connector-curvature="0" /><path
         i:knockout="Off"
         style="fill:#62625e;stroke:#62625e;stroke-miterlimit:10"
         d="m 281.0918,517.80762 c 0,7.25195 -1.8418,12.63476 -5.52246,16.14844 -3.68165,3.51269 -9.37305,5.2705 -17.07325,5.2705 -2.69726,0 -5.3955,-0.24023 -8.09375,-0.71679 -2.69726,-0.47852 -5.19922,-1.11133 -7.50293,-1.89747 l 2.19141,-10.54101 c 1.9668,0.78711 4.0332,1.4043 6.19727,1.85547 2.16308,0.44922 4.62207,0.6748 7.37695,0.6748 3.59668,0 6.14062,-0.78808 7.62988,-2.36133 1.48926,-1.57421 2.23438,-3.59668 2.23438,-6.07128 l 0,-1.60254 c -1.34864,0.61914 -2.74024,1.083 -4.17286,1.3916 -1.43359,0.30957 -2.99316,0.46387 -4.67968,0.46387 -6.12696,0 -10.82032,-1.81348 -14.08008,-5.43946 -3.25977,-3.62597 -4.88965,-8.69824 -4.88965,-15.2207 0,-3.25977 0.50586,-6.22559 1.51758,-8.89648 1.01172,-2.66895 2.4873,-4.96094 4.42676,-6.87207 1.93847,-1.91114 4.3125,-3.38672 7.12402,-4.42774 2.80957,-1.03906 5.98535,-1.55957 9.52637,-1.55957 1.51758,0 3.07812,0.0713 4.67968,0.21094 1.60157,0.14063 3.18946,0.32324 4.76368,0.54785 1.57226,0.22559 3.07715,0.49219 4.51074,0.80078 1.43262,0.30957 2.71094,0.63282 3.83594,0.96973 l 0,37.27246 z m -27.56934,-18.0459 c 0,7.02832 2.83691,10.54102 8.51465,10.54102 1.29297,0 2.50098,-0.16895 3.62598,-0.50586 1.12304,-0.33789 2.07812,-0.73047 2.86621,-1.18067 l 0,-20.07031 c -0.61914,-0.11133 -1.34864,-0.20996 -2.19239,-0.29492 -0.84277,-0.084 -1.82714,-0.12598 -2.95019,-0.12598 -3.31738,0 -5.79004,1.0957 -7.41992,3.28809 -1.63086,2.19238 -2.44434,4.97558 -2.44434,8.34863 z"
         id="path55"
         inkscape:connector-curvature="0" /><path
         i:knockout="Off"
         style="fill:#62625e;stroke:#62625e;stroke-miterlimit:10"
         d="m 292.55762,480.53516 c 2.13574,-0.61817 4.89062,-1.19336 8.26269,-1.72852 3.37207,-0.5332 6.91309,-0.80078 10.62305,-0.80078 3.76465,0 6.89941,0.49219 9.40039,1.47558 2.50098,0.98438 4.48144,2.375 5.94434,4.17383 1.46093,1.79981 2.5,3.93555 3.11914,6.40918 0.61816,2.47461 0.92773,5.22754 0.92773,8.26367 l 0,25.04493 -12.5625,0 0,-23.52735 c 0,-4.04687 -0.53515,-6.91406 -1.60156,-8.60058 -1.06836,-1.68653 -3.06445,-2.53028 -5.98633,-2.53028 -0.89941,0 -1.85449,0.042 -2.86621,0.12696 -1.01172,0.084 -1.91211,0.18261 -2.69824,0.29492 l 0,34.23633 -12.5625,0 0,-42.83789 z"
         id="path57"
         inkscape:connector-curvature="0" /><path
         i:knockout="Off"
         style="fill:#62625e;stroke:#62625e;stroke-miterlimit:10"
         d="m 339.77051,501.53223 c 0,-3.9336 0.60351,-7.37793 1.8125,-10.33008 1.20801,-2.95117 2.7959,-5.40918 4.76367,-7.37793 1.9668,-1.96777 4.22852,-3.45703 6.78711,-4.46973 2.55664,-1.01172 5.18457,-1.51758 7.88281,-1.51758 6.29395,0 11.26856,1.92676 14.92285,5.77637 3.65332,3.85156 5.48047,9.51563 5.48047,16.99219 0,0.73047 -0.0293,1.53223 -0.085,2.40234 -0.0566,0.87305 -0.11328,1.64453 -0.16797,2.31934 l -28.49707,0 c 0.28027,2.58691 1.48828,4.63769 3.625,6.15625 2.13574,1.51758 5.00195,2.27637 8.59961,2.27637 2.30469,0 4.56641,-0.21094 6.78711,-0.63282 2.21973,-0.42089 4.03223,-0.94043 5.43848,-1.55957 l 1.68554,10.20313 c -0.67382,0.33789 -1.57422,0.6748 -2.69726,1.01269 -1.125,0.33692 -2.375,0.63184 -3.75196,0.88477 -1.37793,0.25293 -2.85351,0.46387 -4.42675,0.63281 -1.57422,0.16895 -3.14844,0.25293 -4.72071,0.25293 -3.99218,0 -7.46191,-0.59082 -10.41211,-1.77051 -2.95117,-1.18066 -5.39648,-2.79589 -7.33496,-4.8496 -1.93945,-2.05079 -3.37304,-4.48243 -4.2998,-7.29395 -0.92774,-2.81055 -1.3916,-5.84571 -1.3916,-9.10742 z m 29.50879,-4.80664 c -0.0566,-1.06641 -0.24024,-2.10743 -0.54786,-3.12012 -0.30957,-1.01172 -0.78808,-1.91016 -1.43359,-2.69824 -0.64648,-0.78614 -1.46191,-1.4336 -2.44531,-1.93946 -0.9834,-0.50585 -2.20606,-0.75878 -3.66699,-0.75878 -1.40625,0 -2.61426,0.24023 -3.62598,0.71679 -1.01172,0.47852 -1.85449,1.11035 -2.5293,1.89746 -0.67383,0.78809 -1.19433,1.70118 -1.55957,2.74024 -0.36621,1.04101 -0.63183,2.0957 -0.80078,3.16211 l 16.60938,0 z"
         id="path59"
         inkscape:connector-curvature="0" /></g></g></svg>