<?xml version="1.0" encoding="UTF-8" standalone="no"?>
<svg
   xmlns:a="http://ns.adobe.com/AdobeSVGViewerExtensions/3.0/"
   xmlns:ns="&amp;ns_vars;"
   xmlns:i="&amp;ns_ai;"
   xmlns:dc="http://purl.org/dc/elements/1.1/"
   xmlns:cc="http://creativecommons.org/ns#"
   xmlns:rdf="http://www.w3.org/1999/02/22-rdf-syntax-ns#"
   xmlns:svg="http://www.w3.org/2000/svg"
   xmlns="http://www.w3.org/2000/svg"
   xmlns:xlink="http://www.w3.org/1999/xlink"
   id="svg2"
   xml:space="preserve"
   style="enable-background:new 0 0 431.913086 557.888672;"
   viewBox="0 0 431.913086 557.888672"
   height="557.888672px"
   width="431.913086px"
   y="0px"
   x="0px"
   i:pageBounds="393.402344 693.583984 825.31543 135.695312"
   i:rulerOrigin="-393.402344 -135.695312"
   i:viewOrigin="393.402344 693.583984"
   version="1.1"><defs
     id="defs63" /><metadata
     id="metadata4"><ns:variableSets><ns:variableSet
         varSetName="binding1"
         locked="none"><ns:variables /><ns:sampleDataSets /></ns:variableSet></ns:variableSets><rdf:RDF><cc:Work
         rdf:about=""><dc:format>image/svg+xml</dc:format><dc:type
           rdf:resource="http://purl.org/dc/dcmitype/StillImage" /><dc:title></dc:title></cc:Work></rdf:RDF></metadata><g
     i:rgbTrio="#4F008000FFFF"
     i:dimmedPercent="50"
     i:layer="yes"
     id="Ebene_1"><g
       id="g7"><g
         id="g9"><path
           id="path11"
           d="M319.789062,222.943359v78.132812c0,9.933594-3.285156,14.902344-9.867188,14.902344     c-6.839844,0-10.265625-4.503906-10.265625-13.527344v-79.507812l-56.246094-0.292969v87.449219     c0,22.695312,5.03125,33.882812,13.355469,44.378906c8.339844,10.484375,22.386719,15.867188,35.25,15.867188     c8.703125,0,17.585938-1.195312,26.652344-7.074219c-1.914062,22.488281-17.359375,32.460938-34.195312,32.460938     c-15.128906,0-32.628906-7.648438-46.246094-11.238281c-13.609375-3.59375-42.488281-12.980469-79.664062-8.976562     c-47.058594,5.46875-65.289062,11.714844-127.546875,39.269531l55.5,43.078125     c32.566406-22.5,47.675781-27.410156,76.910156-31.792969c54.5625-7.828125,81.875,18.179688,132.757812,17.132812     c21.9375,0,43.277344-7.027344,58.738281-25.472656c12.953125-15.511719,21.097656-44.078125,21.097656-69.316406     l0.292969-125.472656H319.789062z M146.65625,225.083984c0-0.121094,0.015625-0.242188,0.023438-0.375     c0.207031-7.136719,6.050781-12.859375,13.234375-12.859375c7.316406,0,13.242188,5.929688,13.242188,13.234375     c0,7.332031-5.925781,13.261719-13.242188,13.261719c-0.074219,0-0.136719-0.011719-0.207031-0.011719     c-0.148438,0-0.28125,0.011719-0.425781,0.011719v54.425781h-3.460938l8.609375,0.15625     c21.65625,0,37.851562-5.832031,48.585938-17.484375c11.757812-12.671875,17.625-29.195312,17.625-49.578125     c0-20.980469-6.542969-38.574219-19.636719-52.757812c-13.097656-14.199219-29.269531-21.296875-48.523438-21.296875     c-10.640625,0-20.957031,2.386719-30.949219,7.148438c-9.996094,4.773438-18.328125,11.25-24.988281,19.46875     c-5.929688,7.402344-10.109375,15.378906-12.570312,23.949219c-2.457031,8.570312-3.679688,19.542969-3.679688,32.925781     v130.023438h56.363281V225.083984z"
           style="fill:#406B9C;"
           i:knockout="Off" /></g><g
         id="g13"><g
           id="g15"
           i:knockout="Off"><defs
             id="defs17"><path
               d="M272.28125,25.423828l-31.777344,178.4375       c-0.417969,2.289062,0.855469,4.164062,2.84375,4.164062h59.351562c1.988281,0,3.273438-1.875,2.859375-4.175781       L273.769531,25.423828c-0.199219-1.144531-0.472656-1.714844-0.746094-1.714844       C272.757812,23.708984,272.484375,24.279297,272.28125,25.423828"
               i:knockout="Off"
               id="SVGID_1_" /></defs><linearGradient
             y2="115.867188"
             x2="305.289276"
             y1="115.867188"
             x1="240.740234"
             gradientUnits="userSpaceOnUse"
             id="SVGID_2_"><stop
               id="stop21"
               style="stop-color:#F9B000"
               offset="0" /><stop
               id="stop23"
               style="stop-color:#FFE771"
               offset="1" /><a:midPointStop
               style="stop-color:#F9B000"
               offset="0" /><a:midPointStop
               style="stop-color:#F9B000"
               offset="0.5" /><a:midPointStop
               style="stop-color:#FFE771"
               offset="1" /></linearGradient><use
             id="use25"
             style="overflow:visible;fill:url(#SVGID_2_);"
             xlink:href="#SVGID_1_" /><clipPath
             id="SVGID_3_"><use
               id="use28"
               style="overflow:visible;"
               xlink:href="#SVGID_1_" /></clipPath></g><g
           id="g30"
           i:knockout="Off"><defs
             id="defs32"><path
               d="M346.492188,25.423828l-31.777344,178.4375       c-0.417969,2.289062,0.855469,4.164062,2.84375,4.164062h59.351562c1.988281,0,3.277344-1.875,2.859375-4.175781       L347.980469,25.423828c-0.199219-1.144531-0.472656-1.714844-0.746094-1.714844       C346.96875,23.708984,346.695312,24.279297,346.492188,25.423828"
               i:knockout="Off"
               id="SVGID_4_" /></defs><linearGradient
             y2="115.867188"
             x2="379.502136"
             y1="115.867188"
             x1="314.951172"
             gradientUnits="userSpaceOnUse"
             id="SVGID_5_"><stop
               id="stop36"
               style="stop-color:#F9B000"
               offset="0" /><stop
               id="stop38"
               style="stop-color:#FFE771"
               offset="1" /><a:midPointStop
               style="stop-color:#F9B000"
               offset="0" /><a:midPointStop
               style="stop-color:#F9B000"
               offset="0.5" /><a:midPointStop
               style="stop-color:#FFE771"
               offset="1" /></linearGradient><use
             id="use40"
             style="overflow:visible;fill:url(#SVGID_5_);"
             xlink:href="#SVGID_4_" /><clipPath
             id="SVGID_6_"><use
               id="use43"
               style="overflow:visible;"
               xlink:href="#SVGID_4_" /></clipPath></g></g></g><g
       id="g45"><path
         id="path47"
         d="M73.18457,501.195312c0-3.204102,0.519043-6.225586,1.55957-9.06543    c1.039551-2.837891,2.54248-5.3125,4.510742-7.419922c1.966797-2.108398,4.35498-3.780273,7.166504-5.017578    c2.80957-1.236328,6.013672-1.855469,9.611328-1.855469c2.36084,0,4.523926,0.210938,6.491699,0.632812    c1.966797,0.420898,3.878418,1.026367,5.733398,1.8125l-2.61377,10.035156c-1.180176-0.449219-2.474121-0.84375-3.878418-1.180664    c-1.405273-0.337891-2.97998-0.505859-4.721191-0.505859c-3.709961,0-6.479004,1.152344-8.304688,3.457031    c-1.827148,2.305664-2.740234,5.341797-2.740234,9.107422c0,3.992188,0.856445,7.083008,2.571777,9.275391    c1.713867,2.193359,4.706543,3.289062,8.979004,3.289062c1.517578,0,3.146973-0.139648,4.890137-0.421875    c1.741211-0.280273,3.343262-0.729492,4.805664-1.348633l1.770508,10.287109    c-1.462402,0.620117-3.288086,1.152344-5.480469,1.602539c-2.191895,0.449219-4.609375,0.674805-7.250488,0.674805    c-4.046875,0-7.532715-0.604492-10.45459-1.813477c-2.92334-1.208008-5.326172-2.852539-7.208496-4.932617    c-1.883789-2.079102-3.260254-4.539062-4.131348-7.378906C73.619141,507.59082,73.18457,504.512695,73.18457,501.195312z"
         style="fill:#62625E;stroke:#62625E;stroke-miterlimit:10;"
         i:knockout="Off" /><path
         id="path49"
         d="M156.398926,501.111328c0,3.486328-0.505859,6.675781-1.517578,9.570312    c-1.011719,2.896484-2.474121,5.369141-4.384277,7.420898c-1.911133,2.052734-4.202148,3.640625-6.871094,4.764648    c-2.67041,1.124023-5.663086,1.686523-8.979004,1.686523c-3.260742,0-6.226074-0.5625-8.89502-1.686523    c-2.669922-1.124023-4.960938-2.711914-6.871094-4.764648c-1.911621-2.051758-3.401367-4.524414-4.468262-7.420898    c-1.068359-2.894531-1.602051-6.083984-1.602051-9.570312c0-3.485352,0.547852-6.662109,1.644043-9.529297    s2.61377-5.3125,4.552734-7.335938c1.938965-2.024414,4.243164-3.597656,6.913574-4.722656    c2.668945-1.124023,5.577637-1.686523,8.726074-1.686523c3.203613,0,6.140137,0.5625,8.810547,1.686523    c2.668945,1.125,4.959473,2.698242,6.871094,4.722656c1.910156,2.023438,3.399902,4.46875,4.468262,7.335938    C155.864258,494.449219,156.398926,497.625977,156.398926,501.111328z M143.583984,501.111328    c0-3.878906-0.773438-6.928711-2.318848-9.149414c-1.546387-2.220703-3.751465-3.331055-6.618164-3.331055    s-5.087891,1.110352-6.660645,3.331055c-1.574219,2.220703-2.36084,5.270508-2.36084,9.149414s0.786621,6.956055,2.36084,9.233398    c1.572754,2.276367,3.793945,3.415039,6.660645,3.415039s5.071777-1.138672,6.618164-3.415039    C142.810547,508.067383,143.583984,504.990234,143.583984,501.111328z"
         style="fill:#62625E;stroke:#62625E;stroke-miterlimit:10;"
         i:knockout="Off" /><path
         id="path51"
         d="M183.461914,524.216797c-3.654297-0.057617-6.618652-0.451172-8.89502-1.180664    c-2.276367-0.730469-4.075684-1.756836-5.395508-3.078125c-1.321289-1.320312-2.221191-2.922852-2.698242-4.806641    c-0.478027-1.882812-0.716309-4.005859-0.716309-6.367188v-48.824219l12.562012-2.024414v48.319336    c0,1.125,0.084473,2.136719,0.25293,3.036133s0.491211,1.658203,0.969727,2.276367    c0.476562,0.619141,1.165527,1.125,2.06543,1.517578c0.898438,0.394531,2.10791,0.647461,3.625488,0.758789L183.461914,524.216797    z"
         style="fill:#62625E;stroke:#62625E;stroke-miterlimit:10;"
         i:knockout="Off" /><path
         id="path53"
         d="M233.457031,501.111328c0,3.486328-0.505859,6.675781-1.517578,9.570312    c-1.011719,2.896484-2.474609,5.369141-4.384766,7.420898c-1.910156,2.052734-4.201172,3.640625-6.871094,4.764648    s-5.662109,1.686523-8.978516,1.686523c-3.259766,0-6.226562-0.5625-8.894531-1.686523    c-2.67041-1.124023-4.961426-2.711914-6.871582-4.764648c-1.911621-2.051758-3.401367-4.524414-4.468262-7.420898    c-1.068359-2.894531-1.602051-6.083984-1.602051-9.570312c0-3.485352,0.547852-6.662109,1.644043-9.529297    s2.61377-5.3125,4.552734-7.335938c1.938965-2.024414,4.243164-3.597656,6.913086-4.722656    c2.669922-1.124023,5.578125-1.686523,8.726562-1.686523c3.203125,0,6.140625,0.5625,8.810547,1.686523    c2.667969,1.125,4.958984,2.698242,6.871094,4.722656c1.910156,2.023438,3.400391,4.46875,4.46875,7.335938    C232.921875,494.449219,233.457031,497.625977,233.457031,501.111328z M220.642578,501.111328    c0-3.878906-0.773438-6.928711-2.318359-9.149414c-1.546875-2.220703-3.751953-3.331055-6.619141-3.331055    s-5.087891,1.110352-6.660156,3.331055c-1.574219,2.220703-2.361328,5.270508-2.361328,9.149414    s0.787109,6.956055,2.361328,9.233398c1.572266,2.276367,3.792969,3.415039,6.660156,3.415039    s5.072266-1.138672,6.619141-3.415039C219.869141,508.067383,220.642578,504.990234,220.642578,501.111328z"
         style="fill:#62625E;stroke:#62625E;stroke-miterlimit:10;"
         i:knockout="Off" /><path
         id="path55"
         d="M281.091797,517.807617c0,7.251953-1.841797,12.634766-5.522461,16.148438    c-3.681641,3.512695-9.373047,5.270508-17.073242,5.270508c-2.697266,0-5.395508-0.240234-8.09375-0.716797    c-2.697266-0.478516-5.199219-1.111328-7.50293-1.897461l2.191406-10.541016    c1.966797,0.787109,4.033203,1.404297,6.197266,1.855469c2.163086,0.449219,4.62207,0.674805,7.376953,0.674805    c3.59668,0,6.140625-0.788086,7.629883-2.361328c1.489258-1.574219,2.234375-3.59668,2.234375-6.071289v-1.602539    c-1.348633,0.619141-2.740234,1.083008-4.172852,1.391602c-1.433594,0.30957-2.993164,0.463867-4.679688,0.463867    c-6.126953,0-10.820312-1.813477-14.080078-5.439453s-4.889648-8.698242-4.889648-15.220703    c0-3.259766,0.505859-6.225586,1.517578-8.896484c1.011719-2.668945,2.487305-4.960938,4.426758-6.87207    c1.938477-1.911133,4.3125-3.386719,7.124023-4.427734c2.80957-1.039062,5.985352-1.55957,9.526367-1.55957    c1.517578,0,3.078125,0.071289,4.679688,0.210938c1.601562,0.140625,3.189453,0.323242,4.763672,0.547852    c1.572266,0.225586,3.077148,0.492188,4.510742,0.800781c1.432617,0.30957,2.710938,0.632812,3.835938,0.969727V517.807617z     M253.522461,499.761719c0,7.02832,2.836914,10.541016,8.514648,10.541016c1.292969,0,2.500977-0.168945,3.625977-0.505859    c1.123047-0.337891,2.078125-0.730469,2.866211-1.180664v-20.070312c-0.619141-0.111328-1.348633-0.209961-2.192383-0.294922    c-0.842773-0.083984-1.827148-0.125977-2.950195-0.125977c-3.317383,0-5.790039,1.095703-7.419922,3.288086    C254.335938,493.605469,253.522461,496.388672,253.522461,499.761719z"
         style="fill:#62625E;stroke:#62625E;stroke-miterlimit:10;"
         i:knockout="Off" /><path
         id="path57"
         d="M292.557617,480.535156c2.135742-0.618164,4.890625-1.193359,8.262695-1.728516    c3.37207-0.533203,6.913086-0.800781,10.623047-0.800781c3.764648,0,6.899414,0.492188,9.400391,1.475586    c2.500977,0.984375,4.481445,2.375,5.944336,4.173828c1.460938,1.799805,2.5,3.935547,3.119141,6.40918    c0.618164,2.474609,0.927734,5.227539,0.927734,8.263672v25.044922h-12.5625v-23.527344    c0-4.046875-0.535156-6.914062-1.601562-8.600586c-1.068359-1.686523-3.064453-2.530273-5.986328-2.530273    c-0.899414,0-1.854492,0.041992-2.866211,0.126953c-1.011719,0.083984-1.912109,0.182617-2.698242,0.294922v34.236328h-12.5625    V480.535156z"
         style="fill:#62625E;stroke:#62625E;stroke-miterlimit:10;"
         i:knockout="Off" /><path
         id="path59"
         d="M339.770508,501.532227c0-3.933594,0.603516-7.37793,1.8125-10.330078    c1.208008-2.951172,2.795898-5.40918,4.763672-7.37793c1.966797-1.967773,4.228516-3.457031,6.787109-4.469727    c2.556641-1.011719,5.18457-1.517578,7.882812-1.517578c6.293945,0,11.268555,1.926758,14.922852,5.776367    c3.65332,3.851562,5.480469,9.515625,5.480469,16.992188c0,0.730469-0.029297,1.532227-0.084961,2.402344    c-0.056641,0.873047-0.113281,1.644531-0.167969,2.319336h-28.49707c0.280273,2.586914,1.488281,4.637695,3.625,6.15625    c2.135742,1.517578,5.001953,2.276367,8.599609,2.276367c2.304688,0,4.566406-0.210938,6.787109-0.632812    c2.219727-0.420898,4.032227-0.94043,5.438477-1.55957l1.685547,10.203125    c-0.673828,0.337891-1.574219,0.674805-2.697266,1.012695c-1.125,0.336914-2.375,0.631836-3.751953,0.884766    c-1.37793,0.25293-2.853516,0.463867-4.426758,0.632812c-1.574219,0.168945-3.148438,0.25293-4.720703,0.25293    c-3.992188,0-7.461914-0.59082-10.412109-1.770508c-2.951172-1.180664-5.396484-2.795898-7.334961-4.849609    c-1.939453-2.050781-3.373047-4.482422-4.299805-7.293945C340.234375,507.829102,339.770508,504.793945,339.770508,501.532227z     M369.279297,496.725586c-0.056641-1.066406-0.240234-2.107422-0.547852-3.120117    c-0.30957-1.011719-0.788086-1.910156-1.433594-2.698242c-0.646484-0.786133-1.461914-1.433594-2.445312-1.939453    s-2.206055-0.758789-3.666992-0.758789c-1.40625,0-2.614258,0.240234-3.625977,0.716797    c-1.011719,0.478516-1.854492,1.110352-2.529297,1.897461c-0.673828,0.788086-1.194336,1.701172-1.55957,2.740234    c-0.366211,1.041016-0.631836,2.095703-0.800781,3.162109H369.279297z"
         style="fill:#62625E;stroke:#62625E;stroke-miterlimit:10;"
         i:knockout="Off" /></g></g></svg>